<?xml version="1.0" encoding="utf-8"?>
<!-- Generator: Adobe Illustrator 26.5.0, SVG Export Plug-In . SVG Version: 6.00 Build 0)  -->
<svg version="1.1" xmlns="http://www.w3.org/2000/svg" xmlns:xlink="http://www.w3.org/1999/xlink" x="0px" y="0px"
	 viewBox="0 0 500 500" enable-background="new 0 0 500 500" xml:space="preserve">
<g id="Icon">
	<path fill="#442EE0" d="M415.46,415.46C459.66,371.27,484,312.5,484,250s-24.34-121.27-68.54-165.46S312.5,16,250,16
		S128.73,40.34,84.54,84.54S16,187.5,16,250s24.34,121.27,68.54,165.46S187.5,484,250,484S371.27,459.66,415.46,415.46z"/>
	<path fill="#FEF04A" d="M373.21,174.79c-5.67-5.67-13.2-8.79-21.21-8.79s-15.55,3.12-21.21,8.79l-8.49-8.49
		c7.93-7.93,18.48-12.3,29.7-12.3s21.77,4.37,29.7,12.3L373.21,174.79z M430,256v48h-12v-48c0-3.31-2.69-6-6-6
		c-1.2,0-2.35,0.35-3.34,1.01c-1.54,1.04-3.48,1.3-5.24,0.71c-1.76-0.59-3.16-1.96-3.77-3.71c-0.84-2.41-3.12-4.02-5.65-4.02
		c-1.2,0-2.35,0.35-3.34,1.01c-1.54,1.04-3.48,1.3-5.24,0.71c-1.76-0.59-3.16-1.96-3.77-3.71c-0.84-2.41-3.12-4.02-5.65-4.02
		c-3.31,0-6,2.69-6,6h-12v-48c0-3.31-2.69-6-6-6s-6,2.69-6,6v84h-12v-9.07l-12.15-23.53c-1.55-3.01-5.29-4.24-8.33-2.76
		c-3.04,1.48-4.36,5.19-2.95,8.26l33.39,72.59l-10.9,5.01l-33.39-72.59c-4.12-8.95-0.26-19.74,8.59-24.06
		c8.85-4.32,19.73-0.71,24.25,8.04l1.48,2.87V214h-42c-3.31,0-6-2.69-6-6v-72c0-3.31,2.69-6,6-6h120c3.31,0,6,2.69,6,6v72
		c0,3.31-2.69,6-6,6h-42v13.05c1.88-0.67,3.89-1.05,6-1.05c5.44,0,10.47,2.46,13.82,6.49c1.36-0.32,2.76-0.49,4.18-0.49
		c5.44,0,10.47,2.46,13.82,6.49c1.36-0.32,2.76-0.49,4.18-0.49C421.93,238,430,246.07,430,256z M370,196v6h36v-60H298v60h36v-6
		c0-9.93,8.07-18,18-18S370,186.07,370,196z M264.06,375.28C244.38,383.48,218.07,388,190,388s-54.38-4.52-74.06-12.72
		c-1.81-0.75-3.53-1.53-5.18-2.32l-11.93,7.22c3.74,2.2,7.9,4.27,12.49,6.18C132.44,395.16,160.38,400,190,400
		s57.56-4.84,78.68-13.64c4.59-1.91,8.75-3.98,12.49-6.18l-11.93-7.22C267.59,373.75,265.87,374.53,264.06,375.28z M190,364
		c-20.43,0-37.74-3.59-49.92-8.79l-12.11,7.33c2.04,1.15,4.23,2.25,6.57,3.29C149.46,372.39,169.15,376,190,376
		s40.54-3.61,55.45-10.17c2.35-1.03,4.53-2.13,6.57-3.29l-12.11-7.33C227.74,360.41,210.43,364,190,364z M220.71,343.59l-11.78-7.13
		c-5.02,2.15-11.5,3.54-18.93,3.54s-13.91-1.4-18.93-3.54l-11.78,7.13c7.61,5.2,18.47,8.41,30.71,8.41S213.1,348.79,220.71,343.59z
		 M267.99,280v-5.69c0-0.93-0.1-1.85-0.32-2.75l-21.74,4.84l4.81,3.6H267.99z M134.06,276.4l-21.74-4.84
		c-0.21,0.9-0.32,1.82-0.32,2.75V280h17.26L134.06,276.4z M151.89,214c-4.59,0-8.69,2.54-10.74,6.63l-8.44,16.89l3.29,0.43
		c0.26,0.03,0.53,0.04,0.78,0.04h77.21V250h-77.21c-0.78,0-1.56-0.06-2.34-0.16l-8-1.04l-8.1,11.82l31.06,6.89
		c2.28,0.51,4.06,2.31,4.56,4.6c0.5,2.29-0.4,4.66-2.26,6.06l-16.85,12.63c-1.03,0.79-2.29,1.21-3.6,1.21h-19.26V307v17.99
		c0,1.66,1.35,3,3,3H124c1.65,0,3-1.34,3-3v-9c0-3.32,2.68-6,6-6H247c3.31,0,6,2.68,6,6v9c0,1.66,1.34,3,3,3h9c1.66,0,3-1.34,3-3
		v-33h-19.26c-1.29,0-2.56-0.41-3.6-1.21l-16.83-12.63c-1.88-1.4-2.76-3.76-2.28-6.06c0.5-2.29,2.28-4.09,4.57-4.6l39.26-8.72
		c2.47-0.56,5.01,0.5,6.36,2.63c2.47,3.87,3.78,8.33,3.78,12.89v50.68c0,8.28-6.73,15.01-15.01,15.01h-9
		c-8.28,0-15.01-6.73-15.01-15.01v-3H139v3c0,8.28-6.73,15.01-14.99,15.01h-9.01c-8.26,0-14.99-6.73-14.99-15.01V307v-32.69v-0.73
		c0-4.87,1.46-9.55,4.2-13.57l10.52-15.35l-1.32-0.66H100v-12.01h14.83c0.93,0,1.84,0.22,2.68,0.63l3.38,1.69l9.52-19.05
		c4.09-8.19,12.32-13.27,21.48-13.27h76.23c9.14,0,17.37,5.09,21.46,13.27l9.52,19.05l3.38-1.69c0.84-0.41,1.75-0.63,2.69-0.63H280
		V244h-13.42l-7.48,3.73c-0.84,0.43-1.76,0.63-2.68,0.63c-0.65,0-1.28-0.1-1.9-0.31c-1.51-0.5-2.76-1.59-3.47-3l-12.21-24.43
		c-2.04-4.09-6.16-6.63-10.73-6.63H151.89 M81.21,333.25C77.79,338.23,76,343.52,76,349c0,5.48,1.77,10.78,5.19,15.76l11.8-4.31
		C89.73,356.7,88,352.83,88,349c0-3.82,1.74-7.69,5-11.44l-0.02-0.01L81.21,333.25z M287.01,337.55l-0.02,0.01
		c3.27,3.75,5,7.61,5,11.44c0,3.83-1.73,7.7-4.99,11.45l11.8,4.31c3.42-4.98,5.19-10.27,5.19-15.76c0-5.48-1.79-10.77-5.21-15.75
		L287.01,337.55z"/>
</g>
<g id="Raster">
</g>
<g id="Ebene_1">
</g>
</svg>
